<svg xmlns="http://www.w3.org/2000/svg" width="380" height="594" viewBox="0 0 380 594" version="1.1">
	<path d="M 172.500 71.109 C 169.200 71.585, 163.361 72.924, 159.525 74.084 C 125.393 84.409, 101.442 118.293, 95.889 164.113 C 93.689 182.261, 97.263 201.803, 106.017 219.500 C 114.313 236.269, 124.839 249.222, 164.525 291.495 C 172.789 300.298, 183.134 311.775, 187.515 317 C 191.896 322.225, 204.709 337.275, 215.990 350.444 C 246.832 386.451, 247.303 387.019, 251.928 393.863 C 261.117 407.461, 265.010 420.529, 264.987 437.708 C 264.941 471.916, 246.369 502.992, 220.546 512.068 C 209.984 515.781, 199.603 516.588, 187.599 514.632 C 168.746 511.560, 158.620 506.801, 147.882 495.962 C 143.597 491.636, 140.072 486.859, 137.882 482.409 C 134.679 475.899, 134.502 474.979, 134.533 465.018 C 134.561 456.179, 134.943 453.656, 136.923 449.212 C 144.921 431.262, 170.499 427.499, 185.120 442.120 C 193.403 450.403, 192.583 460.438, 181.592 485.341 L 179.897 489.181 183.199 488.475 C 193.108 486.353, 207.095 480.030, 214.264 474.431 C 227.706 463.934, 232.237 446.399, 225.891 429.438 C 223.124 422.042, 218.037 416.657, 210.037 412.655 C 200.457 407.862, 191.861 406.604, 173.290 407.277 L 158.080 407.827 161.063 402.542 C 164.979 395.604, 169.562 382.928, 170.977 375.125 C 172.590 366.232, 172.399 349.771, 170.582 341 C 168.495 330.928, 163.076 320.276, 156.336 312.996 C 153.283 309.698, 150.469 307, 150.083 307 C 149.696 307, 147.982 312.075, 146.274 318.278 C 141.839 334.378, 134.522 350.668, 123.471 369.048 C 102.180 404.459, 95.806 423.744, 95.720 453 C 95.677 467.910, 96.601 474.715, 100.203 486 C 110.252 517.479, 138.037 536.444, 180.933 541.103 C 194.738 542.602, 213.279 541.717, 223.500 539.072 C 255.316 530.838, 278.732 503.784, 288.043 464.500 C 295.306 433.862, 290.799 406.092, 274.466 380.840 C 266.569 368.631, 258.500 359.215, 226.500 324.865 C 215.500 313.058, 197.215 292.395, 185.866 278.948 C 174.517 265.502, 159.541 247.975, 152.586 240 C 127.818 211.601, 122.010 199.148, 121.886 174.168 C 121.744 145.490, 135.187 117.984, 155.706 104.971 C 175.358 92.509, 208.219 93.895, 229.430 108.082 C 243.480 117.479, 251.836 129.982, 252.768 142.999 C 253.695 155.965, 249.558 167.444, 241.855 173.279 C 225.103 185.969, 196 175.252, 196 156.394 C 196 150.759, 198.246 142.839, 202.861 132.199 C 207.453 121.610, 207.590 121.746, 196.176 125.577 C 167.341 135.257, 155.039 151.514, 158.959 174.759 C 161.200 188.044, 169.537 197.576, 183 202.246 C 188.889 204.288, 191.349 204.500, 209.159 204.500 L 228.819 204.500 225.508 210.500 C 218.028 224.055, 214.789 237.448, 214.866 254.500 C 214.944 271.495, 219.137 284.990, 227.761 296 C 231.301 300.519, 235.954 304.986, 237.131 304.995 C 237.478 304.998, 238.282 302.863, 238.916 300.250 C 243.504 281.352, 251.694 262.282, 263.814 242.273 C 268.736 234.148, 274.564 223.900, 276.766 219.500 C 286.299 200.448, 291.110 180.461, 291.207 159.500 C 291.333 132.493, 284.480 112.671, 269.652 97.155 C 260.991 88.092, 244.089 78.775, 229.500 75.023 C 212.328 70.606, 187.709 68.916, 172.500 71.109" stroke="none" fill="black" fill-rule="evenodd"/>
</svg>